<mxfile host="app.diagrams.net" modified="2022-04-18T10:01:18.664Z" agent="5.0 (Windows NT 10.0; WOW64) AppleWebKit/537.36 (KHTML, like Gecko) Chrome/78.0.3904.108 Safari/537.36" etag="GK3iQvXX4Pzh4pdju8fA" version="17.4.5" type="github">
  <diagram id="A1y6-r479yuS4qFz9Nl_" name="Page-1">
    <mxGraphModel dx="1422" dy="745" grid="0" gridSize="10" guides="1" tooltips="1" connect="1" arrows="1" fold="1" page="0" pageScale="1" pageWidth="827" pageHeight="1169" math="0" shadow="0">
      <root>
        <mxCell id="0" />
        <mxCell id="1" parent="0" />
        <mxCell id="3-TVI8ZTu8FyL8jXZ4YY-5" value="" style="edgeStyle=orthogonalEdgeStyle;rounded=0;orthogonalLoop=1;jettySize=auto;html=1;" edge="1" parent="1" source="3-TVI8ZTu8FyL8jXZ4YY-2" target="3-TVI8ZTu8FyL8jXZ4YY-3">
          <mxGeometry relative="1" as="geometry" />
        </mxCell>
        <mxCell id="3-TVI8ZTu8FyL8jXZ4YY-2" value="拆分需求" style="rounded=1;whiteSpace=wrap;html=1;fontSize=16;" vertex="1" parent="1">
          <mxGeometry x="100" y="250" width="80" height="40" as="geometry" />
        </mxCell>
        <mxCell id="3-TVI8ZTu8FyL8jXZ4YY-6" value="" style="edgeStyle=orthogonalEdgeStyle;rounded=0;orthogonalLoop=1;jettySize=auto;html=1;" edge="1" parent="1" source="3-TVI8ZTu8FyL8jXZ4YY-3" target="3-TVI8ZTu8FyL8jXZ4YY-4">
          <mxGeometry relative="1" as="geometry" />
        </mxCell>
        <mxCell id="3-TVI8ZTu8FyL8jXZ4YY-3" value="制定开发计划" style="rounded=1;whiteSpace=wrap;html=1;fontSize=16;" vertex="1" parent="1">
          <mxGeometry x="220" y="250" width="80" height="40" as="geometry" />
        </mxCell>
        <mxCell id="3-TVI8ZTu8FyL8jXZ4YY-9" style="edgeStyle=orthogonalEdgeStyle;rounded=0;orthogonalLoop=1;jettySize=auto;html=1;" edge="1" parent="1" source="3-TVI8ZTu8FyL8jXZ4YY-4" target="3-TVI8ZTu8FyL8jXZ4YY-7">
          <mxGeometry relative="1" as="geometry" />
        </mxCell>
        <mxCell id="3-TVI8ZTu8FyL8jXZ4YY-10" style="edgeStyle=orthogonalEdgeStyle;rounded=0;orthogonalLoop=1;jettySize=auto;html=1;entryX=0;entryY=0.5;entryDx=0;entryDy=0;" edge="1" parent="1" source="3-TVI8ZTu8FyL8jXZ4YY-4" target="3-TVI8ZTu8FyL8jXZ4YY-8">
          <mxGeometry relative="1" as="geometry" />
        </mxCell>
        <mxCell id="3-TVI8ZTu8FyL8jXZ4YY-4" value="技术评审会" style="rounded=1;whiteSpace=wrap;html=1;fontSize=16;" vertex="1" parent="1">
          <mxGeometry x="340" y="250" width="80" height="40" as="geometry" />
        </mxCell>
        <mxCell id="3-TVI8ZTu8FyL8jXZ4YY-7" value="不通过" style="rounded=1;whiteSpace=wrap;html=1;" vertex="1" parent="1">
          <mxGeometry x="460" y="220" width="50" height="30" as="geometry" />
        </mxCell>
        <mxCell id="3-TVI8ZTu8FyL8jXZ4YY-12" value="" style="edgeStyle=orthogonalEdgeStyle;rounded=0;orthogonalLoop=1;jettySize=auto;html=1;" edge="1" parent="1" source="3-TVI8ZTu8FyL8jXZ4YY-8" target="3-TVI8ZTu8FyL8jXZ4YY-11">
          <mxGeometry relative="1" as="geometry" />
        </mxCell>
        <mxCell id="3-TVI8ZTu8FyL8jXZ4YY-8" value="通过" style="rounded=1;whiteSpace=wrap;html=1;" vertex="1" parent="1">
          <mxGeometry x="460" y="290" width="50" height="30" as="geometry" />
        </mxCell>
        <mxCell id="3-TVI8ZTu8FyL8jXZ4YY-22" value="" style="edgeStyle=orthogonalEdgeStyle;rounded=0;orthogonalLoop=1;jettySize=auto;html=1;" edge="1" parent="1" source="3-TVI8ZTu8FyL8jXZ4YY-11" target="3-TVI8ZTu8FyL8jXZ4YY-20">
          <mxGeometry relative="1" as="geometry" />
        </mxCell>
        <mxCell id="3-TVI8ZTu8FyL8jXZ4YY-11" value="按计划开发" style="rounded=1;whiteSpace=wrap;html=1;fontSize=16;" vertex="1" parent="1">
          <mxGeometry x="550" y="285" width="80" height="40" as="geometry" />
        </mxCell>
        <mxCell id="3-TVI8ZTu8FyL8jXZ4YY-18" value="" style="edgeStyle=orthogonalEdgeStyle;rounded=0;orthogonalLoop=1;jettySize=auto;html=1;" edge="1" parent="1" source="3-TVI8ZTu8FyL8jXZ4YY-14" target="3-TVI8ZTu8FyL8jXZ4YY-15">
          <mxGeometry relative="1" as="geometry" />
        </mxCell>
        <mxCell id="3-TVI8ZTu8FyL8jXZ4YY-14" value="阶段代码走查" style="rounded=1;whiteSpace=wrap;html=1;fontSize=16;" vertex="1" parent="1">
          <mxGeometry x="908" y="285" width="80" height="40" as="geometry" />
        </mxCell>
        <mxCell id="3-TVI8ZTu8FyL8jXZ4YY-19" value="" style="edgeStyle=orthogonalEdgeStyle;rounded=0;orthogonalLoop=1;jettySize=auto;html=1;" edge="1" parent="1" source="3-TVI8ZTu8FyL8jXZ4YY-15" target="3-TVI8ZTu8FyL8jXZ4YY-16">
          <mxGeometry relative="1" as="geometry" />
        </mxCell>
        <mxCell id="3-TVI8ZTu8FyL8jXZ4YY-15" value="阶段交付" style="rounded=1;whiteSpace=wrap;html=1;fontSize=16;" vertex="1" parent="1">
          <mxGeometry x="1028" y="285" width="80" height="40" as="geometry" />
        </mxCell>
        <mxCell id="3-TVI8ZTu8FyL8jXZ4YY-16" value="完整交付" style="rounded=1;whiteSpace=wrap;html=1;fontSize=16;" vertex="1" parent="1">
          <mxGeometry x="1145" y="285" width="80" height="40" as="geometry" />
        </mxCell>
        <mxCell id="3-TVI8ZTu8FyL8jXZ4YY-23" value="" style="edgeStyle=orthogonalEdgeStyle;rounded=0;orthogonalLoop=1;jettySize=auto;html=1;" edge="1" parent="1" source="3-TVI8ZTu8FyL8jXZ4YY-20" target="3-TVI8ZTu8FyL8jXZ4YY-21">
          <mxGeometry relative="1" as="geometry" />
        </mxCell>
        <mxCell id="3-TVI8ZTu8FyL8jXZ4YY-20" value="晨例会" style="rounded=1;whiteSpace=wrap;html=1;fontSize=16;" vertex="1" parent="1">
          <mxGeometry x="674" y="285" width="80" height="40" as="geometry" />
        </mxCell>
        <mxCell id="3-TVI8ZTu8FyL8jXZ4YY-24" value="" style="edgeStyle=orthogonalEdgeStyle;rounded=0;orthogonalLoop=1;jettySize=auto;html=1;" edge="1" parent="1" source="3-TVI8ZTu8FyL8jXZ4YY-21" target="3-TVI8ZTu8FyL8jXZ4YY-14">
          <mxGeometry relative="1" as="geometry" />
        </mxCell>
        <mxCell id="3-TVI8ZTu8FyL8jXZ4YY-21" value="周例会" style="rounded=1;whiteSpace=wrap;html=1;fontSize=16;" vertex="1" parent="1">
          <mxGeometry x="791" y="285" width="80" height="40" as="geometry" />
        </mxCell>
      </root>
    </mxGraphModel>
  </diagram>
</mxfile>
